<svg xmlns="http://www.w3.org/2000/svg" aria-label="logomarca thavi.lang" viewBox="0 0 154.87 28.57">
    <title>thavi.lang</title>
    <path d="m70.65,0c-1.73,0-3.06,1.33-3.06,3.06s1.33,3.06,3.06,3.06,3.06-1.33,3.06-3.06-1.33-3.06-3.06-3.06Zm2.68,7.41h-5.34v14.86h5.34V7.41Zm-6.78,0h-5.65l-2.91,8.89-2.88-8.89h-5.83l5.67,14.86h6.04l5.56-14.86Zm-26.52,4.56c1.53,0,2.64,1.2,2.64,2.87s-1.11,2.86-2.64,2.86-2.64-1.2-2.64-2.86,1.11-2.87,2.64-2.87Zm7.8-4.56h-5.13v1.33c-.88-1.02-2.17-1.74-4.03-1.74-3.99,0-6.78,3.53-6.78,7.81s2.79,7.84,6.76,7.84c1.88,0,3.17-.71,4.05-1.69v1.3h5.13V7.41ZM20.95.65h-5.34v21.63h5.34v-7.96c0-1.63.83-2.31,1.86-2.31,1.17,0,1.87.79,1.87,2.28v8h5.34v-9.67c0-3.42-2.23-5.59-5.31-5.59-1.68,0-2.92.53-3.77,1.58V.65Zm-8.08,6.76h-4.83V3.15H2.7v4.26H0v4.71h2.7v4.3c0,3.64,1.73,6.24,5.95,6.24,2.61,0,4.1-.69,5.58-1.72l-1.79-4.14c-.69.39-1.59.9-2.41.9-1.16,0-2-.49-2-2.1v-3.48h4.83v-4.71Z"/>
    <path d="m147.12,11.85c1.47,0,2.5,1.08,2.5,2.59s-1.03,2.6-2.5,2.6-2.56-1.08-2.56-2.6,1.1-2.59,2.56-2.59Zm-1.33-4.84c-4.02,0-6.76,3.33-6.76,7.44s2.75,7.44,6.76,7.44c1.79,0,3.03-.66,3.88-1.62v.67c0,2.19-1.87,3-3.36,3-1.73,0-3.23-.44-4.65-1.51l-1.89,4.2c1.86,1.3,4.42,1.95,7.02,1.95,4.81,0,8.08-2.91,8.08-7.89V7.41h-5.13v1.3c-.85-1-2.13-1.71-3.96-1.71Zm-13.93,0c-1.86,0-3.18.65-4.02,1.94v-1.53h-5.08v14.86h5.34v-7.96c0-1.6.8-2.31,1.86-2.31,1.17,0,1.87.79,1.87,2.28v8h5.34v-9.67c0-3.42-2.23-5.59-5.31-5.59Zm-19.51,4.96c1.53,0,2.64,1.2,2.64,2.87s-1.11,2.86-2.64,2.86-2.64-1.2-2.64-2.86,1.11-2.87,2.64-2.87Zm7.8-4.56h-5.13v1.33c-.88-1.02-2.17-1.74-4.03-1.74-3.99,0-6.78,3.53-6.78,7.81s2.79,7.84,6.76,7.84c1.88,0,3.17-.71,4.05-1.69v1.3h5.13V7.41ZM102.25.67h-5.34v21.6h5.34V.67Z"/>
    <path d="m85.14,15.75c-1.88,0-3.48,1.59-3.48,3.43s1.6,3.48,3.48,3.48,3.44-1.6,3.44-3.48-1.59-3.43-3.44-3.43Z"/>
</svg>