<svg aria-hidden="true" style="position: absolute; width: 0; height: 0; overflow: hidden;" version="1.1" xmlns="http://www.w3.org/2000/svg" xmlns:xlink="http://www.w3.org/1999/xlink">
<defs>
<symbol id="icon-download" viewBox="0 0 32 32">
<path d="M0 15.914v14.703c0 0.346 0 0.692 0.346 0.865s0.519 0.346 0.865 0.346h29.405c0.346 0 0.692 0 0.865-0.346 0.173-0.173 0.346-0.519 0.346-0.865v-14.703c0-0.692-0.519-1.211-1.211-1.211s-1.211 0.519-1.211 1.211v13.319h-26.811s0-13.319 0-13.319c0-0.692-0.519-1.384-1.211-1.384s-1.384 0.692-1.384 1.384v0z"></path>
<path d="M22.486 14.184l-6.4 6.4-6.4-6.4c-0.519-0.519-1.384-0.519-1.903 0s-0.519 1.384 0 1.903l7.265 7.265c0.173 0.173 0.519 0.346 0.865 0.346s0.692 0 0.865-0.346l7.265-7.265c0.519-0.519 0.519-1.384 0-1.903s-1.384-0.519-1.903 0v0z"></path>
<path d="M14.703 1.384v21.276c0 0.692 0.519 1.384 1.384 1.384s1.384-0.519 1.384-1.384v-21.276c0-0.692-0.519-1.384-1.384-1.384s-1.384 0.519-1.384 1.384z"></path>
</symbol>
<symbol id="icon-github" viewBox="0 0 32 32">
<path d="M16 0.4c-8.8 0-16 7.2-16 16s4.6 13.1 10.9 15.2c0.8 0.1 1.1-0.3 1.1-0.8s0-1.6 0-3c-4.5 1-5.4-1.9-5.4-1.9-0.7-1.8-1.8-2.3-1.8-2.3-1.5-1 0.1-1 0.1-1 1.6 0.1 2.5 1.6 2.5 1.6 1.4 2.4 3.7 1.7 4.7 1.3 0.1-1 0.6-1.7 1-2.1-3.6-0.4-7.3-1.8-7.3-7.9s0.6-3.2 1.6-4.3c-0.2-0.4-0.7-2 0.2-4.2 0 0 1.3-0.4 4.4 1.6 1.3-0.4 2.6-0.5 4-0.5s2.7 0.2 4 0.5c3.1-2.1 4.4-1.6 4.4-1.6 0.9 2.2 0.3 3.8 0.2 4.2 1 1.1 1.6 2.5 1.6 4.3 0 6.1-3.7 7.5-7.3 7.9 0.6 0.5 1.1 1.5 1.1 3 0 2.1 0 3.9 0 4.4s0.3 0.9 1.1 0.8c6.4-2.1 10.9-8.1 10.9-15.2s-7.2-16-16-16z"></path>
</symbol>
<symbol id="icon-linkedin" viewBox="0 0 32 32">
<path d="M25.3 0h-18.6c-3.7 0-6.7 3-6.7 6.7v18.7c0 3.7 3 6.7 6.7 6.7h18.7c3.7 0 6.7-3 6.7-6.7v-18.7c0-3.7-3-6.7-6.7-6.7zM10.7 25.3h-4v-14.7h4v14.7zM8.7 9v0c-1.3 0-2.4-1.1-2.4-2.4s1.1-2.4 2.4-2.4 2.4 1.1 2.4 2.4v0c0 1.3-1 2.3-2.3 2.4v0 0zM26.7 25.3h-4v-7.5c0-4.5-5.3-4.2-5.3 0v7.5h-4v-14.7h4v2.4c1.9-3.4 9.3-3.7 9.3 3.3v9z"></path>
</symbol>
<symbol id="icon-nova-aba" viewBox="0 0 32 32">
<path d="M18.727 8.039h-14.061c-1.1 0-1.993 0.893-1.993 1.993v17.309c0 1.1 0.893 1.993 1.993 1.993h17.349c1.1 0 1.993-0.893 1.993-1.993v-13.968h2.666v14.632c0 2.205-1.791 3.996-3.997 3.997h-18.673c-2.206 0-3.997-1.791-3.997-3.997v-18.636c0-2.206 1.791-3.997 3.997-3.997h14.723v2.667z"></path>
<path d="M31.993 11.546h-2.67v-6.987l-18.596 18.595-1.888-1.888 18.596-18.596h-6.989v-2.67l11.546 0.001v11.546z"></path>
</symbol>
<symbol id="icon-seta" viewBox="0 0 32 32">
<path d="M8.65 32c-0.8 0-1.4-0.6-1.4-1.4s0.2-0.7 0.4-1l13.6-13.6-13.5-13.6c-0.2-0.2-0.4-0.6-0.4-1 0-0.8 0.6-1.4 1.4-1.4s0.7 0.1 1 0.4l14.6 14.6c0.3 0.3 0.4 0.6 0.4 1s-0.2 0.7-0.4 1l-14.6 14.6c-0.3 0.3-0.6 0.4-1 0.4v0z"></path>
</symbol>
<symbol id="icon-seta-perna" viewBox="0 0 32 32">
<path d="M15.1 0.4v0c0.5-0.5 1.3-0.5 1.8 0 0.2 0.2 0.4 0.6 0.4 0.9v29.5c0 0.3-0.1 0.6-0.4 0.9-0.5 0.5-1.3 0.5-1.8 0-0.2-0.2-0.4-0.5-0.4-0.9v-29.6c0-0.3 0.1-0.6 0.4-0.9v0z"></path>
<path d="M0.4 15.1c0.5-0.5 1.3-0.5 1.8 0l13.9 13.9 13.9-13.9c0.5-0.5 1.3-0.5 1.8 0s0.5 1.3 0 1.8l-14.8 14.8c-0.5 0.5-1.3 0.5-1.8 0l-14.8-14.8c-0.5-0.5-0.5-1.3 0-1.8v0z"></path>
</symbol>
<symbol id="icon-whatsapp" viewBox="0 0 32 32">
<path d="M31.801 14.112c0-0.398 0-0.795-0.199-1.193-0.596-3.975-2.981-7.553-6.162-9.938-2.186-1.59-4.969-2.584-7.553-2.981h-3.18c-0.398 0.199-0.795 0.199-1.193 0.199-5.168 0.994-9.739 4.571-11.727 9.342-0.994 2.385-1.391 4.77-1.193 7.155 0.199 2.186 0.795 4.373 1.988 6.36v0.596c-0.596 1.789-1.193 3.578-1.789 5.366l-0.596 1.988v0.199l-0.199 0.596 0.397 0.199 0.596-0.199 0.994-0.398 2.186-0.795c1.391-0.398 2.783-0.994 4.174-1.391h0.596c7.354 4.174 16.696 1.391 20.87-6.162 0.994-1.789 1.59-3.578 1.789-5.565l0.199-0.596v-2.783zM5.366 25.043c0.199-0.596 0.397-1.193 0.596-1.59v-0.596c-2.783-3.975-2.981-9.143-0.596-13.317 1.193-1.988 2.783-3.776 4.969-4.969 4.571-2.584 10.137-1.988 14.112 1.193 5.366 4.373 6.162 12.323 1.789 17.689-1.988 2.385-4.969 4.174-8.149 4.571-2.981 0.398-5.963-0.199-8.348-1.789l-0.398-0.199h-0.398c-1.193 0.398-2.385 0.795-3.578 1.193l-0.596 0.199 0.596-2.385z"></path>
<path d="M10.534 16.696c0.994 1.391 2.186 2.584 3.578 3.776 1.59 0.994 3.18 1.789 4.969 2.186 0.398 0.199 0.994 0.199 1.391 0.199 0.596 0 0.994-0.199 1.59-0.398 1.391-0.398 2.385-1.789 2.385-3.379l-0.596-0.398-0.795-0.398c-0.795-0.398-1.59-0.795-2.385-0.994-0.398-0.199-0.795 0-0.994 0.199v0l-0.398 0.398-0.398 0.596c-0.596 0.596-0.596 0.596-1.193 0.199-1.988-0.795-3.578-2.186-4.571-3.975v-0.596l0.795-0.994c0.199-0.398 0.398-0.994 0-1.391-0.199-0.596-0.596-1.391-0.994-2.385 0-0.398-0.398-1.193-1.391-0.994-0.596-0.199-1.193 0-1.789 0.596-1.193 1.193-1.59 3.18-0.994 4.77 0.398 1.193 0.994 2.186 1.789 2.981z"></path>
</symbol>
</defs>
</svg>
