<!-- Generated by IcoMoon.io -->
<svg version="1.1" xmlns="http://www.w3.org/2000/svg" width="32" height="32" viewBox="0 0 32 32">
<path d="M0 15.914v14.703c0 0.346 0 0.692 0.346 0.865s0.519 0.346 0.865 0.346h29.405c0.346 0 0.692 0 0.865-0.346 0.173-0.173 0.346-0.519 0.346-0.865v-14.703c0-0.692-0.519-1.211-1.211-1.211s-1.211 0.519-1.211 1.211v13.319h-26.811s0-13.319 0-13.319c0-0.692-0.519-1.384-1.211-1.384s-1.384 0.692-1.384 1.384v0z"></path>
<path d="M22.486 14.184l-6.4 6.4-6.4-6.4c-0.519-0.519-1.384-0.519-1.903 0s-0.519 1.384 0 1.903l7.265 7.265c0.173 0.173 0.519 0.346 0.865 0.346s0.692 0 0.865-0.346l7.265-7.265c0.519-0.519 0.519-1.384 0-1.903s-1.384-0.519-1.903 0v0z"></path>
<path d="M14.703 1.384v21.276c0 0.692 0.519 1.384 1.384 1.384s1.384-0.519 1.384-1.384v-21.276c0-0.692-0.519-1.384-1.384-1.384s-1.384 0.519-1.384 1.384z"></path>
</svg>
