<?xml version="1.0" encoding="UTF-8"?>
<svg id="Camada_2" data-name="Camada 2" xmlns="http://www.w3.org/2000/svg" viewBox="0 0 23.55 23.55">
  <defs>
    <style>
      .cls-1 {
        fill: #000;
        stroke-width: 0px;
      }
    </style>
  </defs>
  <g id="Camada_1-2" data-name="Camada 1">
    <path class="cls-1" d="M1.41,23.48h0c-.71,0-1.27-.57-1.27-1.27,0-.28.14-.71.35-.92L21.35.42c.21-.21.49-.35.92-.35.71,0,1.27.57,1.27,1.27,0,.28-.07.64-.35.92L2.26,23.19c-.21.21-.49.35-.92.35h0l.07-.07Z"/>
    <path class="cls-1" d="M22.2,23.48c-.71,0-1.27-.57-1.27-1.27V2.55s-19.66,0-19.66,0c-.71,0-1.27-.57-1.27-1.27S.57,0,1.27,0h20.93c.71,0,1.27.57,1.27,1.27v20.93c0,.71-.57,1.27-1.27,1.27h0Z"/>
  </g>
</svg>