<!-- Generated by IcoMoon.io -->
<svg version="1.1" xmlns="http://www.w3.org/2000/svg" width="32" height="32" viewBox="0 0 32 32">
<path d="M31.801 14.112c0-0.398 0-0.795-0.199-1.193-0.596-3.975-2.981-7.553-6.162-9.938-2.186-1.59-4.969-2.584-7.553-2.981h-3.18c-0.398 0.199-0.795 0.199-1.193 0.199-5.168 0.994-9.739 4.571-11.727 9.342-0.994 2.385-1.391 4.77-1.193 7.155 0.199 2.186 0.795 4.373 1.988 6.36v0.596c-0.596 1.789-1.193 3.578-1.789 5.366l-0.596 1.988v0.199l-0.199 0.596 0.397 0.199 0.596-0.199 0.994-0.398 2.186-0.795c1.391-0.398 2.783-0.994 4.174-1.391h0.596c7.354 4.174 16.696 1.391 20.87-6.162 0.994-1.789 1.59-3.578 1.789-5.565l0.199-0.596v-2.783zM5.366 25.043c0.199-0.596 0.397-1.193 0.596-1.59v-0.596c-2.783-3.975-2.981-9.143-0.596-13.317 1.193-1.988 2.783-3.776 4.969-4.969 4.571-2.584 10.137-1.988 14.112 1.193 5.366 4.373 6.162 12.323 1.789 17.689-1.988 2.385-4.969 4.174-8.149 4.571-2.981 0.398-5.963-0.199-8.348-1.789l-0.398-0.199h-0.398c-1.193 0.398-2.385 0.795-3.578 1.193l-0.596 0.199 0.596-2.385z"></path>
<path d="M10.534 16.696c0.994 1.391 2.186 2.584 3.578 3.776 1.59 0.994 3.18 1.789 4.969 2.186 0.398 0.199 0.994 0.199 1.391 0.199 0.596 0 0.994-0.199 1.59-0.398 1.391-0.398 2.385-1.789 2.385-3.379l-0.596-0.398-0.795-0.398c-0.795-0.398-1.59-0.795-2.385-0.994-0.398-0.199-0.795 0-0.994 0.199v0l-0.398 0.398-0.398 0.596c-0.596 0.596-0.596 0.596-1.193 0.199-1.988-0.795-3.578-2.186-4.571-3.975v-0.596l0.795-0.994c0.199-0.398 0.398-0.994 0-1.391-0.199-0.596-0.596-1.391-0.994-2.385 0-0.398-0.398-1.193-1.391-0.994-0.596-0.199-1.193 0-1.789 0.596-1.193 1.193-1.59 3.18-0.994 4.77 0.398 1.193 0.994 2.186 1.789 2.981z"></path>
</svg>
